<?xml version="1.0" encoding="utf-8"?>
<!-- Generator: Adobe Illustrator 25.4.1, SVG Export Plug-In . SVG Version: 6.00 Build 0)  -->
<svg version="1.1" id="Layer_1" xmlns="http://www.w3.org/2000/svg" xmlns:xlink="http://www.w3.org/1999/xlink" x="0px" y="0px"
	 width="820px" height="403.4px" viewBox="0 0 820 403.4" style="enable-background:new 0 0 820 403.4;" xml:space="preserve">
<style type="text/css">
	.st0{display:none;}
	.st1{display:inline;fill:#F540DA;}
	.st2{font-family:'BlackJack';}
	.st3{font-size:54.6208px;}
	.st4{fill:#333333;}
	.st5{fill:#F5F5F5;}
	.st6{fill:#CED1D2;}
	.st7{fill:#318DDE;}
	.st8{fill:#1CD0BB;}
	.st9{fill:#FFA400;}
</style>
<g id="draft_-_needed_for_png_proof" class="st0">
	<text transform="matrix(0.9934 -0.115 0.115 0.9934 689.1864 457.7353)" class="st1 st2 st3">draft</text>
</g>
<g id="GUIDE">
	<g>
		<g>
			<path class="st4" d="M133.1,376.2h1.4l3.7,8.5h-1.6l-0.9-2h-4l-0.9,2h-1.5L133.1,376.2z M135.2,381.4l-1.5-3.4l-1.4,3.4H135.2z"
				/>
		</g>
	</g>
	<g>
		<g>
			<path class="st4" d="M213.1,376.3h3.8c1,0,1.7,0.3,2.2,0.7c0.4,0.4,0.6,0.8,0.6,1.4v0c0,1-0.6,1.5-1.2,1.9c1,0.3,1.7,0.9,1.7,2v0
				c0,1.5-1.2,2.3-3.1,2.3h-3.9L213.1,376.3L213.1,376.3z M218.1,378.7c0-0.7-0.5-1.1-1.5-1.1h-2.1v2.2h2
				C217.5,379.8,218.1,379.5,218.1,378.7L218.1,378.7L218.1,378.7z M216.9,381.1h-2.3v2.3h2.4c1,0,1.6-0.4,1.6-1.2v0
				C218.6,381.5,218,381.1,216.9,381.1z"/>
		</g>
	</g>
	<g>
		<g>
			<path class="st4" d="M295.2,380.5L295.2,380.5c0-2.4,1.8-4.4,4.3-4.4c1.5,0,2.5,0.5,3.3,1.3l-0.9,1.1c-0.7-0.6-1.4-1-2.4-1
				c-1.6,0-2.8,1.3-2.8,3v0c0,1.6,1.2,3,2.8,3c1,0,1.7-0.4,2.4-1.1l0.9,1c-0.9,0.9-1.8,1.5-3.4,1.5
				C297,384.8,295.2,382.9,295.2,380.5z"/>
		</g>
	</g>
	<g>
		<g>
			<path class="st4" d="M376.9,376.3h3.1c2.6,0,4.5,1.8,4.5,4.2v0c0,2.4-1.8,4.2-4.5,4.2h-3.1V376.3z M378.4,377.6v5.7h1.7
				c1.8,0,2.9-1.2,2.9-2.8v0c0-1.6-1.2-2.9-2.9-2.9L378.4,377.6L378.4,377.6z"/>
		</g>
	</g>
	<g>
		<g>
			<path class="st4" d="M460.2,376.3h6.2v1.3h-4.8v2.2h4.2v1.3h-4.2v2.3h4.8v1.3h-6.3L460.2,376.3L460.2,376.3z"/>
		</g>
	</g>
	<g>
		<g>
			<path class="st4" d="M540.9,376.3h6.2v1.3h-4.8v2.3h4.2v1.3h-4.2v3.4h-1.5V376.3z"/>
		</g>
	</g>
	<g>
		<g>
			<path class="st4" d="M620.3,380.5L620.3,380.5c0-2.4,1.8-4.4,4.3-4.4c1.5,0,2.4,0.4,3.2,1.1l-0.9,1.1c-0.6-0.6-1.3-0.9-2.4-0.9
				c-1.5,0-2.7,1.4-2.7,3v0c0,1.7,1.1,3,2.9,3c0.8,0,1.5-0.3,2-0.6v-1.6h-2.1V380h3.6v3.5c-0.8,0.7-2,1.3-3.5,1.3
				C622,384.8,620.3,383,620.3,380.5z"/>
		</g>
	</g>
	<g>
		<g>
			<path class="st4" d="M702.6,376.3h1.5v3.5h4v-3.5h1.5v8.4h-1.5v-3.5h-4v3.5h-1.5V376.3z"/>
		</g>
	</g>
</g>
<g id="LINE_CHART">
	<rect x="134.4" y="23" class="st5" width="572.4" height="344.2"/>
	<g>
		<g>
			<rect x="133.9" y="321.7" class="st6" width="572" height="1"/>
		</g>
		<g>
			<rect x="133.9" y="279" class="st6" width="572" height="1"/>
		</g>
		<g>
			<rect x="133.9" y="236.4" class="st6" width="572" height="1"/>
		</g>
		<g>
			<rect x="133.9" y="193.8" class="st6" width="572" height="1"/>
		</g>
		<g>
			<rect x="133.9" y="151.1" class="st6" width="572" height="1"/>
		</g>
		<g>
			<rect x="133.9" y="108.5" class="st6" width="572" height="1"/>
		</g>
		<g>
			<rect x="133.9" y="65.8" class="st6" width="572" height="1"/>
		</g>
		<g>
			<rect x="133.9" y="22.2" class="st6" width="572" height="1"/>
		</g>
		<g>
			<rect x="133.9" y="366.7" class="st6" width="572" height="1"/>
		</g>
	</g>
	<g>
		<rect x="705.9" y="22.4" class="st6" width="1" height="345.2"/>
		<rect x="624.2" y="23.1" class="st6" width="1" height="344.4"/>
		<rect x="542.4" y="23.1" class="st6" width="1" height="344.4"/>
		<rect x="460.7" y="23.1" class="st6" width="1" height="344.4"/>
		<rect x="379" y="23.1" class="st6" width="1" height="344.4"/>
		<rect x="297.3" y="23.1" class="st6" width="1" height="344.4"/>
		<rect x="215.6" y="23.1" class="st6" width="1" height="344.4"/>
		<rect x="133.9" y="23.1" class="st6" width="1" height="344.4"/>
	</g>
	<g>
		<g>
			<path class="st4" d="M102.9,319.7l-1.5,0.4l-0.3-1.2l2.3-0.7h1v8.5h-1.5L102.9,319.7L102.9,319.7z"/>
			<path class="st4" d="M106.8,322.5L106.8,322.5c0-2.4,1.5-4.4,3.7-4.4c2.2,0,3.6,1.9,3.6,4.3v0c0,2.4-1.5,4.3-3.7,4.3
				C108.2,326.8,106.8,324.9,106.8,322.5z M112.6,322.5L112.6,322.5c0-1.7-0.9-3-2.1-3s-2.1,1.3-2.1,3v0c0,1.7,0.8,3,2.1,3
				S112.6,324.2,112.6,322.5z"/>
			<path class="st4" d="M116.1,322.5L116.1,322.5c0-2.4,1.5-4.4,3.7-4.4c2.2,0,3.6,1.9,3.6,4.3v0c0,2.4-1.5,4.3-3.7,4.3
				C117.5,326.8,116.1,324.9,116.1,322.5z M121.9,322.5L121.9,322.5c0-1.7-0.9-3-2.1-3s-2.1,1.3-2.1,3v0c0,1.7,0.8,3,2.1,3
				S121.9,324.2,121.9,322.5z"/>
		</g>
	</g>
	<g>
		<g>
			<path class="st4" d="M100.1,282.5l2.9-2.5c1.2-1,1.6-1.5,1.6-2.3c0-0.8-0.6-1.3-1.4-1.3s-1.3,0.4-1.9,1.3l-1.1-0.8
				c0.8-1.1,1.6-1.8,3.1-1.8c1.6,0,2.8,1,2.8,2.5v0c0,1.3-0.7,2-2.2,3.2l-1.7,1.4h4v1.3h-6.1C100.1,283.7,100.1,282.5,100.1,282.5z"
				/>
			<path class="st4" d="M108.1,279.5L108.1,279.5c0-2.4,1.5-4.4,3.7-4.4c2.2,0,3.6,1.9,3.6,4.3v0c0,2.4-1.5,4.3-3.7,4.3
				C109.5,283.9,108.1,281.9,108.1,279.5z M113.9,279.5L113.9,279.5c0-1.7-0.9-3-2.1-3s-2.1,1.3-2.1,3v0c0,1.7,0.8,3,2.1,3
				C113.1,282.5,113.9,281.2,113.9,279.5z"/>
			<path class="st4" d="M117.4,279.5L117.4,279.5c0-2.4,1.5-4.4,3.7-4.4c2.2,0,3.6,1.9,3.6,4.3v0c0,2.4-1.5,4.3-3.7,4.3
				C118.8,283.9,117.4,281.9,117.4,279.5z M123.2,279.5L123.2,279.5c0-1.7-0.9-3-2.1-3s-2.1,1.3-2.1,3v0c0,1.7,0.8,3,2.1,3
				C122.4,282.5,123.2,281.2,123.2,279.5z"/>
		</g>
	</g>
	<g>
		<g>
			<path class="st4" d="M99.9,239.4l1-1c0.6,0.7,1.3,1.1,2.2,1.1c0.8,0,1.5-0.5,1.5-1.3v0c0-0.8-0.8-1.3-1.9-1.3H102l-0.2-0.9
				l2.3-2.4h-3.6v-1.3h5.6v1.1l-2.3,2.4c1.3,0.2,2.5,0.8,2.5,2.4v0c0,1.5-1.2,2.7-2.9,2.7C101.7,240.9,100.7,240.3,99.9,239.4z"/>
			<path class="st4" d="M108.1,236.5L108.1,236.5c0-2.4,1.5-4.4,3.7-4.4c2.2,0,3.6,1.9,3.6,4.3v0c0,2.4-1.5,4.3-3.7,4.3
				C109.6,240.9,108.1,238.9,108.1,236.5z M113.9,236.5L113.9,236.5c0-1.7-0.9-3-2.1-3s-2.1,1.3-2.1,3v0c0,1.7,0.8,3,2.1,3
				S113.9,238.2,113.9,236.5z"/>
			<path class="st4" d="M117.4,236.5L117.4,236.5c0-2.4,1.5-4.4,3.7-4.4c2.2,0,3.6,1.9,3.6,4.3v0c0,2.4-1.5,4.3-3.7,4.3
				C118.9,240.9,117.4,238.9,117.4,236.5z M123.2,236.5L123.2,236.5c0-1.7-0.9-3-2.1-3s-2.1,1.3-2.1,3v0c0,1.7,0.8,3,2.1,3
				S123.2,238.2,123.2,236.5z"/>
		</g>
	</g>
	<g>
		<g>
			<path class="st4" d="M104,195.9h-4.2l-0.3-1.1l4.7-5.5h1.3v5.4h1.2v1.2h-1.2v1.9H104V195.9z M104,194.6v-3.3l-2.8,3.3H104z"/>
			<path class="st4" d="M108.5,193.6L108.5,193.6c0-2.4,1.5-4.4,3.7-4.4c2.2,0,3.6,1.9,3.6,4.3v0c0,2.4-1.5,4.3-3.7,4.3
				C110,197.9,108.5,196,108.5,193.6z M114.3,193.6L114.3,193.6c0-1.7-0.9-3-2.1-3s-2.1,1.3-2.1,3v0c0,1.7,0.8,3,2.1,3
				C113.5,196.5,114.3,195.2,114.3,193.6z"/>
			<path class="st4" d="M117.8,193.6L117.8,193.6c0-2.4,1.5-4.4,3.7-4.4c2.2,0,3.6,1.9,3.6,4.3v0c0,2.4-1.5,4.3-3.7,4.3
				S117.8,196,117.8,193.6z M123.6,193.6L123.6,193.6c0-1.7-0.9-3-2.1-3s-2.1,1.3-2.1,3v0c0,1.7,0.8,3,2.1,3
				C122.8,196.5,123.6,195.2,123.6,193.6z"/>
		</g>
	</g>
	<g>
		<g>
			<path class="st4" d="M100,153.6l0.9-1.1c0.7,0.6,1.4,1,2.2,1c1,0,1.7-0.6,1.7-1.5v0c0-0.9-0.7-1.4-1.7-1.4
				c-0.6,0-1.1,0.2-1.5,0.4l-0.9-0.6l0.2-4.1h5v1.3H102l-0.1,2c0.4-0.1,0.8-0.2,1.3-0.2c1.6,0,2.9,0.9,2.9,2.6v0
				c0,1.7-1.3,2.8-3.1,2.8C101.8,154.9,100.8,154.4,100,153.6z"/>
			<path class="st4" d="M108.2,150.6L108.2,150.6c0-2.4,1.5-4.4,3.7-4.4c2.2,0,3.6,1.9,3.6,4.3v0c0,2.4-1.5,4.3-3.7,4.3
				C109.6,154.9,108.2,153,108.2,150.6z M114,150.6L114,150.6c0-1.7-0.9-3-2.1-3s-2.1,1.3-2.1,3v0c0,1.7,0.8,3,2.1,3
				S114,152.2,114,150.6z"/>
			<path class="st4" d="M117.5,150.6L117.5,150.6c0-2.4,1.5-4.4,3.7-4.4c2.2,0,3.6,1.9,3.6,4.3v0c0,2.4-1.5,4.3-3.7,4.3
				S117.5,153,117.5,150.6z M123.2,150.6L123.2,150.6c0-1.7-0.9-3-2.1-3s-2.1,1.3-2.1,3v0c0,1.7,0.8,3,2.1,3
				S123.2,152.2,123.2,150.6z"/>
		</g>
	</g>
	<g>
		<g>
			<path class="st4" d="M100.9,111c-0.6-0.6-1-1.5-1-3.2v0c0-2.6,1.2-4.6,3.6-4.6c1.1,0,1.8,0.3,2.6,0.9l-0.8,1.1
				c-0.6-0.5-1.1-0.7-1.8-0.7c-1.5,0-2,1.5-2,2.7c0.5-0.5,1.1-0.9,2-0.9c1.6,0,2.9,1,2.9,2.6v0c0,1.7-1.4,2.9-3.1,2.9
				C102.2,111.9,101.5,111.6,100.9,111z M104.9,109.1L104.9,109.1c0-0.9-0.7-1.5-1.7-1.5s-1.7,0.7-1.7,1.5v0c0,0.9,0.7,1.5,1.7,1.5
				S104.9,110,104.9,109.1z"/>
			<path class="st4" d="M108.4,107.6L108.4,107.6c0-2.4,1.5-4.4,3.7-4.4c2.2,0,3.6,1.9,3.6,4.3v0c0,2.4-1.5,4.3-3.7,4.3
				C109.8,111.9,108.4,110,108.4,107.6z M114.2,107.6L114.2,107.6c0-1.7-0.9-3-2.1-3s-2.1,1.3-2.1,3v0c0,1.7,0.8,3,2.1,3
				C113.3,110.6,114.2,109.2,114.2,107.6z"/>
			<path class="st4" d="M117.6,107.6L117.6,107.6c0-2.4,1.5-4.4,3.7-4.4c2.2,0,3.6,1.9,3.6,4.3v0c0,2.4-1.5,4.3-3.7,4.3
				C119.1,111.9,117.6,110,117.6,107.6z M123.4,107.6L123.4,107.6c0-1.7-0.9-3-2.1-3s-2.1,1.3-2.1,3v0c0,1.7,0.8,3,2.1,3
				C122.6,110.6,123.4,109.2,123.4,107.6z"/>
		</g>
	</g>
	<g>
		<g>
			<path class="st4" d="M104.6,61.7h-4.2v-1.3h5.9v1.1l-3.8,7.3h-1.7L104.6,61.7z"/>
			<path class="st4" d="M108,64.6L108,64.6c0-2.4,1.5-4.4,3.7-4.4c2.2,0,3.6,1.9,3.6,4.3v0c0,2.4-1.5,4.3-3.7,4.3
				C109.4,68.9,108,67,108,64.6z M113.8,64.6L113.8,64.6c0-1.7-0.9-3-2.1-3s-2.1,1.3-2.1,3v0c0,1.7,0.8,3,2.1,3
				C112.9,67.6,113.8,66.2,113.8,64.6z"/>
			<path class="st4" d="M117.2,64.6L117.2,64.6c0-2.4,1.5-4.4,3.7-4.4c2.2,0,3.6,1.9,3.6,4.3v0c0,2.4-1.5,4.3-3.7,4.3
				C118.7,68.9,117.2,67,117.2,64.6z M123,64.6L123,64.6c0-1.7-0.9-3-2.1-3s-2.1,1.3-2.1,3v0c0,1.7,0.8,3,2.1,3
				C122.2,67.6,123,66.2,123,64.6z"/>
		</g>
	</g>
	<g>
		<g>
			<path class="st4" d="M99.9,25.1L99.9,25.1c0-1,0.6-1.7,1.5-2.1c-0.7-0.4-1.2-0.9-1.2-1.9v0c0-1.3,1.2-2.3,2.9-2.3s2.9,1,2.9,2.3
				v0c0,0.9-0.5,1.5-1.2,1.9c0.9,0.4,1.5,1,1.5,2v0c0,1.5-1.4,2.4-3.2,2.4S99.9,26.6,99.9,25.1z M104.9,25L104.9,25
				c0-0.8-0.8-1.3-1.8-1.3s-1.8,0.5-1.8,1.3v0c0,0.7,0.6,1.3,1.8,1.3S104.9,25.7,104.9,25z M104.6,21.3L104.6,21.3
				c0-0.7-0.6-1.2-1.5-1.2s-1.5,0.5-1.5,1.2v0c0,0.7,0.6,1.2,1.5,1.2C104,22.6,104.6,22.1,104.6,21.3z"/>
			<path class="st4" d="M108.2,23.2L108.2,23.2c0-2.4,1.5-4.4,3.7-4.4c2.2,0,3.6,1.9,3.6,4.3v0c0,2.4-1.5,4.3-3.7,4.3
				C109.6,27.6,108.2,25.6,108.2,23.2z M114,23.2L114,23.2c0-1.7-0.9-3-2.1-3s-2.1,1.3-2.1,3v0c0,1.7,0.8,3,2.1,3
				C113.2,26.2,114,24.9,114,23.2z"/>
			<path class="st4" d="M117.5,23.2L117.5,23.2c0-2.4,1.5-4.4,3.7-4.4c2.2,0,3.6,1.9,3.6,4.3v0c0,2.4-1.5,4.3-3.7,4.3
				C118.9,27.6,117.5,25.6,117.5,23.2z M123.3,23.2L123.3,23.2c0-1.7-0.9-3-2.1-3s-2.1,1.3-2.1,3v0c0,1.7,0.8,3,2.1,3
				C122.5,26.2,123.3,24.9,123.3,23.2z"/>
		</g>
	</g>
	<g>
		<polygon class="st7" points="134.9,345.5 133,342 213.6,296.4 295.7,180.2 296,180 377.7,117.1 460.2,133.7 542.3,106.9 
			622.9,117.9 705.1,76.9 706.8,80.5 623.5,122.1 542.7,111 460.5,137.8 378.7,121.4 298.6,183 216.4,299.5 216,299.7 		"/>
	</g>
	<g>
		<polygon class="st8" points="215.4,319.4 132.8,262.8 135.1,259.5 214.6,314 295.6,217.1 377.8,95.1 460.3,175.7 542.2,84.3 
			623.1,137.8 704.8,77.1 707.1,80.3 623.3,142.7 542.8,89.6 460.4,181.4 378.5,101.3 298.8,219.6 298.7,219.6 		"/>
		<g>
			<polygon class="st9" points="215.4,252.3 133,211.1 134.8,207.6 214.6,247.4 295.9,161.3 296.1,161.1 377.4,106.8 377.9,106.7 
				459.8,97 542,61 542.2,60.9 622.9,50.4 705.5,33.2 706.4,37.1 623.5,54.4 543.1,64.9 460.9,100.9 460.6,101 378.9,110.7 
				298.5,164.3 			"/>
		</g>
	</g>
</g>
<g id="area_chart_ref" class="st0">
	
		<image style="display:inline;overflow:visible;opacity:0.3;enable-background:new    ;" width="2975" height="1912" xlink:href="CB6ACC4703D760D1.png"  transform="matrix(0.2282 0 0 0.2282 79.7735 -33.6305)">
	</image>
</g>
<g id="diagram_sample" class="st0">
</g>
<g id="resources" class="st0">
</g>
</svg>
